<?xml version="1.0" encoding="UTF-8"?>
<svg width="51px" height="14px" viewBox="0 0 51 14" version="1.1" xmlns="http://www.w3.org/2000/svg" xmlns:xlink="http://www.w3.org/1999/xlink">
    <!-- Generator: Sketch 42 (36781) - http://www.bohemiancoding.com/sketch -->
    <title>Github</title>
    <desc>Created with Sketch.</desc>
    <defs></defs>
    <g id="Graphics" stroke="none" stroke-width="1" fill="none" fill-rule="evenodd">
        <g id="Artboard" transform="translate(-299.000000, -134.000000)" fill="#0AAB2A">
            <g id="Links" transform="translate(232.000000, 131.000000)">
                <path d="M76.7638136,8.86429155 C76.8736996,8.86429155 76.9627907,8.95354247 76.9627907,9.06336541 L76.9627907,15.5553673 C76.9627907,15.5927134 76.9564572,15.674052 76.8981891,15.7062288 C76.8981891,15.7062288 75.4845542,16.7014925 73.1542521,16.7014925 C70.3398603,16.7014925 67,15.8352523 67,10.022127 C67,4.20921276 69.9170999,3 72.7609424,3 C75.2295256,3 76.2066776,3.54647724 76.3668093,3.66062557 C76.4254996,3.70271909 76.4429167,3.76464614 76.4429167,3.81602344 L75.9676939,5.82722848 C75.9676939,5.93715691 75.8530577,6.06048353 75.7291324,6.02250442 C75.3347671,5.90054927 74.7149296,5.64735518 73.2761718,5.64735518 C71.6140529,5.64735518 69.8436314,6.13907919 69.8436314,9.87643492 C69.8436314,13.6129467 71.5438568,14.0574078 72.7609424,14.0574078 C73.7925623,14.0574078 74.1657105,13.9302833 74.1657105,13.9302833 L74.1657105,11.3441166 L72.5039083,11.3441166 C72.3940222,11.3441166 72.3048256,11.2547602 72.3048256,11.1449373 L72.3048256,9.06336541 C72.3048256,8.95354247 72.3940222,8.86429155 72.5039083,8.86429155 L76.7638136,8.86429155 Z M98.7860465,3.6733351 L98.7860465,16.2637547 C98.7858371,16.3748314 98.6987329,16.4652599 98.5897479,16.4652599 L96.2051642,16.4652599 C96.0963886,16.4652599 96.0081327,16.3748314 96.0081327,16.2637547 C96.0081327,16.2633312 96.0146236,10.8783889 96.0146236,10.8783889 L92.306516,10.8783889 L92.306516,16.2637547 C92.306516,16.3748314 92.2189929,16.4652599 92.1102173,16.4652599 L89.7313918,16.4652599 C89.6231396,16.4652599 89.5348837,16.3748314 89.5348837,16.2637547 L89.5348837,3.6733351 C89.5348837,3.56215253 89.6231396,3.47246526 89.7313918,3.47246526 L92.1102173,3.47246526 C92.2189929,3.47246526 92.306516,3.56215253 92.306516,3.6733351 L92.306516,8.32320178 L96.0146236,8.32320178 C96.0146236,8.32320178 96.0139955,3.67386454 96.0139955,3.6733351 C96.0139955,3.56215253 96.1023561,3.47246526 96.211027,3.47246526 L98.5899572,3.47246526 C98.6989423,3.47246526 98.7860465,3.56215253 98.7860465,3.6733351 Z M81.2325581,5.24374306 C81.2325581,6.09178444 80.5422121,6.77972208 79.6905398,6.77972208 C78.8397094,6.77972208 78.1488372,6.09178444 78.1488372,5.24374306 C78.1488372,4.39476783 78.8397094,3.70869789 79.6905398,3.70869789 C80.5422121,3.70869789 81.2325581,4.39476783 81.2325581,5.24374306 Z M81.2325581,13.6507357 L81.2325581,16.1484994 C81.2325581,16.3505582 81.173587,16.4652599 80.9330836,16.4652599 L78.7409474,16.4652599 C78.5407249,16.4652599 78.3860465,16.3935583 78.3860465,16.152361 L78.3860465,7.94528909 C78.3860465,7.83653638 78.485943,7.7246526 78.5975477,7.7246526 L81.0306169,7.7246526 C81.1422217,7.7246526 81.2325581,7.81357516 81.2325581,7.92232786 L81.2325581,13.6507357 Z M107.839609,7.7246526 C107.948294,7.7246526 108.036477,7.8135601 108.036477,7.92302485 L108.037209,16.2521549 C108.037209,16.3610979 107.948713,16.4502141 107.840655,16.4502141 L106.317697,16.4568926 C106.241649,16.4568926 106.171249,16.4029428 106.144156,16.3495148 C106.117168,16.2958782 106.057438,15.8440361 106.057438,15.8440361 C106.057438,15.8440361 104.803004,16.7014925 103.2472,16.7014925 C101.350694,16.7014925 99.972093,16.097819 99.972093,13.6303228 L99.972093,7.92302485 C99.972093,7.8135601 100.06059,7.7246526 100.168648,7.7246526 L102.562554,7.7246526 C102.670821,7.7246526 102.75869,7.8135601 102.75869,7.92302485 L102.75869,13.2285694 C102.75869,14.0593119 102.98443,14.4442647 103.834876,14.4442647 C104.685426,14.4442647 105.284609,14.0069275 105.284609,14.0069275 L105.284609,7.92302485 C105.284609,7.8135601 105.372687,7.7246526 105.48085,7.7246526 L107.839609,7.7246526 Z M114.600593,7.32836155 C115.971351,7.32836155 118,7.83502586 118,11.7126106 C118,15.5901954 116.729781,16.7014925 114.514921,16.7014925 C112.628311,16.7014925 111.631687,15.7673005 111.631687,15.7673005 C111.631687,15.7673005 111.571043,16.2796778 111.529009,16.3472825 C111.48644,16.4153103 111.42879,16.4541379 111.352637,16.4541379 L109.661651,16.4541379 C109.550523,16.4541379 109.460465,16.3637869 109.460465,16.2528053 L109.460465,3.67316315 C109.460465,3.56207576 109.550523,3.47246526 109.66133,3.47246526 L112.098554,3.47246526 C112.209361,3.47246526 112.299098,3.56207576 112.299098,3.67316315 L112.299098,7.93288856 C112.299098,7.93288856 113.230798,7.32836155 114.600593,7.32836155 Z M113.64932,14.4160546 C114.819641,14.4509678 115.197305,14.024498 115.197305,11.8634779 C115.197305,9.81418 114.360475,9.55465869 113.491986,9.63157349 C112.805217,9.69230126 112.245405,10.0316997 112.245405,10.0316997 L112.245405,14.0153994 C112.245405,14.0153994 112.812811,14.3908748 113.64932,14.4160546 Z M88.119451,7.63516347 C88.2278824,7.63516347 88.3156503,7.7243664 88.3156503,7.83497382 L88.3156503,9.76622792 C88.3156503,9.87715166 88.2278824,9.96656548 88.119451,9.96656548 L86.3405077,9.96656548 C86.3405077,9.96656548 86.340612,12.9605576 86.340612,13.4914522 C86.340612,14.0227685 86.6366851,14.4332496 87.5103982,14.4332496 C87.7834075,14.4332496 88.0485896,14.3906515 88.1522205,14.3906515 C88.2563731,14.3906515 88.3488372,14.4801707 88.3488372,14.5907782 L88.3468543,16.2868992 C88.3468543,16.3668234 88.3059447,16.4405265 88.2355008,16.4666758 C88.1190335,16.5101174 87.4135509,16.7014925 86.823805,16.7014925 C85.533064,16.7014925 83.6203294,16.4308259 83.6203294,13.6757627 L83.6203294,9.96656548 L82.3774903,9.96656548 C82.2690589,9.96656548 82.1813953,9.87715166 82.1813953,9.76622792 L82.1813953,8.22436678 C82.1813953,8.13347679 82.2416118,8.05724308 82.3234311,8.03330801 C82.4055635,8.00937294 83.6203294,7.71308423 83.6203294,7.71308423 L83.6203294,5.25947631 C83.6203294,5.16795368 83.6709447,5.12609367 83.765183,5.12609367 L86.1892881,5.12609367 C86.292084,5.12609367 86.3378986,5.17101146 86.3378986,5.26084704 C86.3378986,5.26137424 86.340612,7.63516347 86.340612,7.63516347 L88.119451,7.63516347 Z" id="Github"></path>
            </g>
        </g>
    </g>
</svg>