<svg width="18px" height="19px" xmlns="http://www.w3.org/2000/svg" viewBox="0 0 64.14 64.14">
  <title>Index</title>
  <g id="Layer_2" data-name="Layer 2">
    <g id="Layer_1-2" data-name="Layer 1">
      <g id="rUMyNS.tif" fill="#FFF">
        <path d="M33,65c-9.81,0-19.63-.06-29.44.05-2,0-2.65-.21-2.64-2.48C1.05,42.95,1,23.32,1,3.69,1,2,.77.9,3.3.92Q33,1.14,62.68.92C65.18.9,65,1.9,65,3.67c0,19.63-.08,39.26,0,58.88,0,2.23-.59,2.52-2.62,2.5C52.64,64.93,42.82,65,33,65Zm2.7-31.9h0c0-4.15.06-8.31,0-12.46,0-1.62-.81-3-2.66-3s-2.6,1.43-2.61,3q-.1,12.21,0,24.42c0,1.61.65,3.1,2.46,3.22,2.15.14,2.86-1.47,2.89-3.28C35.76,41.08,35.7,37.09,35.7,33.1Z" transform="translate(-0.93 -0.92)"/>
      </g>
    </g>
  </g>
</svg>