<?xml version="1.0" encoding="UTF-8"?>
<svg width="18px" height="19px" viewBox="0 0 18 19" version="1.1" xmlns="http://www.w3.org/2000/svg" xmlns:xlink="http://www.w3.org/1999/xlink">
    <!-- Generator: Sketch 42 (36781) - http://www.bohemiancoding.com/sketch -->
    <title>LinkedIn</title>
    <desc>Created with Sketch.</desc>
    <defs></defs>
    <g id="Graphics" stroke="none" stroke-width="1" fill="none" fill-rule="evenodd">
        <g id="Artboard" transform="translate(-265.000000, -131.000000)" fill="#FFF">
            <g id="Links" transform="translate(232.000000, 131.000000)">
                <path d="M48.338,16.1901111 L45.669,16.1901111 L45.669,11.78 C45.669,10.7286667 45.651,9.3765 44.281,9.3765 C42.893,9.3765 42.681,10.5228333 42.681,11.7050556 L42.681,16.1901111 L40.014,16.1901111 L40.014,7.12288889 L42.572,7.12288889 L42.572,8.36211111 L42.609,8.36211111 C42.966,7.64961111 43.836,6.89805556 45.135,6.89805556 C47.839,6.89805556 48.338,8.77483333 48.338,11.2173889 L48.338,16.1901111 Z M37.004,5.88472222 C36.146,5.88472222 35.454,5.15216667 35.454,4.24966667 C35.454,3.34822222 36.146,2.61566667 37.004,2.61566667 C37.857,2.61566667 38.551,3.34822222 38.551,4.24966667 C38.551,5.15216667 37.857,5.88472222 37.004,5.88472222 Z M35.666,16.1901111 L38.339,16.1901111 L38.339,7.12288889 L35.666,7.12288889 L35.666,16.1901111 Z M49.667,0 L34.327,0 C33.595,0 33,0.613277778 33,1.37011111 L33,17.6288333 C33,18.3856667 33.595,19 34.327,19 L49.667,19 C50.401,19 50.999,18.3856667 50.999,17.6288333 L50.999,1.37011111 C50.999,0.613277778 50.401,0 49.667,0 L49.667,0 Z" id="LinkedIn"></path>
            </g>
        </g>
    </g>
</svg>