<?xml version="1.0" encoding="UTF-8"?>
<svg width="25px" height="24px" viewBox="0 0 25 24" version="1.1" xmlns="http://www.w3.org/2000/svg" xmlns:xlink="http://www.w3.org/1999/xlink">
    <!-- Generator: Sketch 42 (36781) - http://www.bohemiancoding.com/sketch -->
    <title>octocat</title>
    <desc>Created with Sketch.</desc>
    <defs></defs>
    <g id="Page-1" stroke="none" stroke-width="1" fill="none" fill-rule="evenodd">
        <path d="M12.3201157,0.455 C5.69382391,0.455 0.32,5.82808716 0.32,12.4565892 C0.32,17.7589487 3.75839268,22.2567819 8.52734828,23.8437323 C9.12779611,23.9542442 9.34660961,23.5836611 9.34660961,23.2653869 C9.34660961,22.981003 9.33629517,22.2258386 9.3304012,21.224601 C5.99220596,21.9495589 5.28787697,19.6155482 5.28787697,19.6155482 C4.74194833,18.2289926 3.95510381,17.8598829 3.95510381,17.8598829 C2.86545676,17.1157696 4.03761934,17.1305046 4.03761934,17.1305046 C5.24219873,17.2152303 5.87580012,18.3675008 5.87580012,18.3675008 C6.94629178,20.2012611 8.68501188,19.6715408 9.36871199,19.3643178 C9.47775036,18.5892613 9.78792035,18.0602778 10.1305071,17.7604222 C7.46569757,17.4576197 4.66385327,16.4276491 4.66385327,11.8288817 C4.66385327,10.5189477 5.13168686,9.44698256 5.89937599,8.60856583 C5.77560269,8.30502656 5.36376179,7.08423876 6.01725532,5.43245466 C6.01725532,5.43245466 7.02438683,5.10976 9.31713978,6.66282016 C10.2741726,6.39611818 11.3011962,6.26350393 12.3215892,6.25834671 C13.3412454,6.26350393 14.3675323,6.39611818 15.3260386,6.66282016 C17.617318,5.10976 18.6229761,5.43245466 18.6229761,5.43245466 C19.2779431,7.08423876 18.8661022,8.30502656 18.7430656,8.60856583 C19.5122282,9.44698256 19.9763781,10.5189477 19.9763781,11.8288817 C19.9763781,16.439437 17.1701133,17.453936 14.4971995,17.7508445 C14.9274591,18.1214277 15.3113037,18.853753 15.3113037,19.9736066 C15.3113037,21.5775022 15.2965687,22.8719646 15.2965687,23.2653869 C15.2965687,23.5866081 15.513172,23.9601382 16.121724,23.8429956 C20.8869959,22.2523614 24.3224416,17.7574752 24.3224416,12.4565892 C24.3224416,5.82808716 18.9486177,0.455 12.3201157,0.455" id="octocat" fill="#FFF"></path>
    </g>
</svg>