<?xml version="1.0" encoding="UTF-8"?>
<svg width="19px" height="15px" viewBox="0 0 19 15" version="1.1" xmlns="http://www.w3.org/2000/svg" xmlns:xlink="http://www.w3.org/1999/xlink">
    <!-- Generator: Sketch 42 (36781) - http://www.bohemiancoding.com/sketch -->
    <title>Twitter</title>
    <desc>Created with Sketch.</desc>
    <defs></defs>
    <g id="Graphics" stroke="none" stroke-width="1" fill="none" fill-rule="evenodd">
        <g id="Artboard" transform="translate(-232.000000, -133.000000)" fill="#FFF">
            <g id="Links" transform="translate(232.000000, 131.000000)">
                <path d="M17.066484,6.22599888 C17.066484,6.06202935 17.063064,5.8987981 17.055312,5.73645277 C17.816376,5.2020199 18.478032,4.5351416 19,3.77583203 C18.301484,4.0771934 17.549844,4.280365 16.761344,4.37191034 C17.566184,3.90325724 18.184064,3.16144464 18.475448,2.2772938 C17.722136,2.71102678 16.888188,3.02648909 16.00028,3.19636476 C15.288996,2.46038449 14.275916,2 13.154916,2 C11.001988,2 9.256192,3.69587751 9.256192,5.78643357 C9.256192,6.08366063 9.290468,6.37254526 9.357272,6.64983906 C6.11762,6.49162803 3.24482,4.98474736 1.3224,2.69352981 C0.987316,3.25298999 0.794504,3.90325724 0.794504,4.59671323 C0.794504,5.91053657 1.482684,7.0702832 2.529128,7.74875233 C1.889816,7.72963116 1.289036,7.55894339 0.763648,7.27500517 C0.762736,7.29080412 0.762736,7.3066769 0.762736,7.32328795 C0.762736,9.15744323 2.106644,10.6884653 3.890136,11.0356732 C3.562804,11.1221983 3.21822,11.1688569 2.86254,11.1688569 C2.611436,11.1688569 2.367172,11.1447155 2.129748,11.100567 C2.626028,12.6050114 4.065012,13.6997903 5.771364,13.73065 C4.436956,14.7462865 2.756292,15.3515194 0.929936,15.3515194 C0.615372,15.3515194 0.30514,15.3340962 0,15.2991023 C1.725276,16.373062 3.773628,17 5.975348,17 C13.145492,17 17.066484,11.2296164 17.066484,6.22599888 Z" id="Twitter"></path>
            </g>
        </g>
    </g>
</svg>