<?xml version="1.0" encoding="UTF-8"?>
<svg width="102px" height="42px" viewBox="0 0 102 42" version="1.1" xmlns="http://www.w3.org/2000/svg" xmlns:xlink="http://www.w3.org/1999/xlink">
    <title>Grey Matter Fabric</title>
    <defs></defs>
    <g id="Page-1" stroke="none" stroke-width="1" fill="none" fill-rule="evenodd">
        <g id="gm-fabric-logo" fill="#FFFFFF">
            <g id="Group-5" transform="translate(6.000000, 9.000000)">
                <path d="M11,22 C4.92486775,22 0,17.0751322 0,11 C0,4.92486775 4.92486775,0 11,0 C17.0751322,0 22,4.92486775 22,11 C22,17.0751322 17.0751322,22 11,22 Z M8.55555556,13.9661447 L8.55555556,9.65965697 L5.32091306,9.65965697 L5.32091306,11.2444444 L6.81638134,11.2444444 L6.81638134,12.7258762 C6.64652483,12.8024364 6.46190096,12.8579417 6.2625042,12.8923937 C6.06310743,12.9268458 5.85263622,12.9440716 5.63108426,12.9440716 C5.24706085,12.9440716 4.9055067,12.8809104 4.60641155,12.7545861 C4.3073164,12.6282619 4.05622794,12.4521761 3.85313864,12.2263236 C3.65004934,12.0004712 3.49681153,11.7306006 3.39342061,11.416704 C3.29002969,11.1028073 3.23833501,10.7582917 3.23833501,10.3831469 C3.23833501,10.0156581 3.29556841,9.67688447 3.41003693,9.36681581 C3.52450544,9.05674714 3.6851282,8.78879059 3.89191004,8.56293811 C4.09869187,8.33708562 4.34239537,8.16099989 4.62302786,8.03467562 C4.90366035,7.90835134 5.21013597,7.84519016 5.54246391,7.84519016 C5.92648732,7.84519016 6.26988771,7.91600725 6.57267539,8.05764355 C6.87546308,8.19927985 7.11916658,8.38110752 7.30379322,8.60313199 L8.50016784,7.19060403 C8.1678399,6.86139532 7.73582005,6.59918069 7.20409533,6.40395227 C6.67237062,6.20872386 6.09634416,6.11111111 5.47599866,6.11111111 C4.87780836,6.11111111 4.32024428,6.21063783 3.80328969,6.40969426 C3.28633511,6.60875068 2.83585288,6.89393302 2.45182947,7.26524981 C2.06780607,7.63656661 1.76686917,8.08635083 1.54900973,8.61461596 C1.3311503,9.14288109 1.22222222,9.73238551 1.22222222,10.3831469 C1.22222222,11.0262523 1.32930407,11.6100148 1.54347096,12.1344519 C1.75763786,12.658889 2.05488229,13.1086732 2.43521316,13.483818 C2.81554403,13.8589629 3.26971874,14.1498871 3.79775092,14.3565996 C4.3257831,14.563312 4.90365581,14.6666667 5.53138637,14.6666667 C6.13696174,14.6666667 6.69637206,14.6015915 7.20963411,14.4714392 C7.72289615,14.3412869 8.17153215,14.1728571 8.55555556,13.9661447 Z M17.789452,14.6666667 L17.8317539,8.61252354 L17.8000275,8.61252354 L15.8541409,14.6666667 L14.5850845,14.6666667 L12.6920753,8.61252354 L12.6603489,8.61252354 L12.7026507,14.6666667 L11,14.6666667 L11,6.11111111 L13.5698393,6.11111111 L15.27249,11.5973007 L15.3147919,11.5973007 L16.9434144,6.11111111 L19.5555556,6.11111111 L19.5555556,14.6666667 L17.789452,14.6666667 Z" id="Combined-Shape"></path>
            </g>
            <g id="GM-Data-Logo" transform="translate(34.000000, 11.000000)">
                <path d="M0.716,1.424 L10.77,1.424 L10.77,3.844 L3.488,3.844 L3.488,8.112 L10.352,8.112 L10.352,10.444 L3.488,10.444 L3.488,17 L0.716,17 L0.716,1.424 Z M19.746,15.658 L19.68,15.658 C19.4159987,16.1273357 18.9906696,16.5123318 18.404,16.813 C17.8173304,17.1136682 17.1500037,17.264 16.402,17.264 C15.9766645,17.264 15.5330023,17.2090005 15.071,17.099 C14.6089977,16.9889994 14.1836686,16.8056679 13.795,16.549 C13.4063314,16.292332 13.083668,15.9550021 12.827,15.537 C12.5703321,15.1189979 12.442,14.6020031 12.442,13.986 C12.442,13.193996 12.6656644,12.5633357 13.113,12.094 C13.5603356,11.6246643 14.1359965,11.2653346 14.84,11.016 C15.5440035,10.7666654 16.3249957,10.6016671 17.183,10.521 C18.0410043,10.4403329 18.8806626,10.4 19.702,10.4 L19.702,10.136 C19.702,9.4759967 19.4636691,8.98833491 18.987,8.673 C18.510331,8.35766509 17.9420033,8.2 17.282,8.2 C16.7246639,8.2 16.1893359,8.31733216 15.676,8.552 C15.1626641,8.78666784 14.737335,9.07266498 14.4,9.41 L13.036,7.804 C13.6373363,7.24666388 14.3303294,6.82866806 15.115,6.55 C15.8996706,6.27133194 16.6953293,6.132 17.502,6.132 C18.4406714,6.132 19.2143303,6.26399868 19.823,6.528 C20.4316697,6.79200132 20.9119982,7.13666454 21.264,7.562 C21.6160018,7.98733546 21.861666,8.46399736 22.001,8.992 C22.140334,9.52000264 22.21,10.0479974 22.21,10.576 L22.21,17 L19.746,17 L19.746,15.658 Z M19.702,12.182 L19.108,12.182 C18.6826645,12.182 18.2353357,12.2003332 17.766,12.237 C17.2966643,12.2736668 16.864002,12.3543327 16.468,12.479 C16.071998,12.6036673 15.7420013,12.7796655 15.478,13.007 C15.2139987,13.2343345 15.082,13.545998 15.082,13.942 C15.082,14.1913346 15.1369995,14.4003325 15.247,14.569 C15.3570006,14.7376675 15.4999991,14.8733328 15.676,14.976 C15.8520009,15.0786672 16.0499989,15.1519998 16.27,15.196 C16.4900011,15.2400002 16.7099989,15.262 16.93,15.262 C17.8393379,15.262 18.5286643,15.0200024 18.998,14.536 C19.4673357,14.0519976 19.702,13.3920042 19.702,12.556 L19.702,12.182 Z M27.974,0.368 L27.974,7.782 L28.04,7.782 C28.1720007,7.60599912 28.3406656,7.42266762 28.546,7.232 C28.7513344,7.04133238 28.9969986,6.86533414 29.283,6.704 C29.5690014,6.54266586 29.9026648,6.40700055 30.284,6.297 C30.6653352,6.18699945 31.0979976,6.132 31.582,6.132 C32.3300037,6.132 33.0193302,6.27499857 33.65,6.561 C34.2806698,6.84700143 34.8233311,7.23933084 35.278,7.738 C35.7326689,8.23666916 36.0846654,8.82332996 36.334,9.498 C36.5833346,10.17267 36.708,10.8986628 36.708,11.676 C36.708,12.4533372 36.5870012,13.1829966 36.345,13.865 C36.1029988,14.5470034 35.7583356,15.1409975 35.311,15.647 C34.8636644,16.1530025 34.3210032,16.5563318 33.683,16.857 C33.0449968,17.1576682 32.3226707,17.308 31.516,17.308 C30.7679963,17.308 30.0676699,17.1466683 29.415,16.824 C28.7623301,16.5013317 28.2526685,16.0320031 27.886,15.416 L27.842,15.416 L27.842,17 L25.334,17 L25.334,0.368 L27.974,0.368 Z M34.024,11.676 C34.024,11.2653313 33.9616673,10.8583353 33.837,10.455 C33.7123327,10.0516646 33.5253346,9.68866828 33.276,9.366 C33.0266654,9.04333172 32.7113352,8.78300099 32.33,8.585 C31.9486648,8.38699901 31.5013359,8.288 30.988,8.288 C30.5039976,8.288 30.0713352,8.39066564 29.69,8.596 C29.3086648,8.80133436 28.9823347,9.06533172 28.711,9.388 C28.4396653,9.71066828 28.234334,10.0773313 28.095,10.488 C27.955666,10.8986687 27.886,11.3093313 27.886,11.72 C27.886,12.1306687 27.955666,12.5376646 28.095,12.941 C28.234334,13.3443353 28.4396653,13.7073317 28.711,14.03 C28.9823347,14.3526683 29.3086648,14.612999 29.69,14.811 C30.0713352,15.009001 30.5039976,15.108 30.988,15.108 C31.5013359,15.108 31.9486648,15.0053344 32.33,14.8 C32.7113352,14.5946656 33.0266654,14.3306683 33.276,14.008 C33.5253346,13.6853317 33.7123327,13.3186687 33.837,12.908 C33.9616673,12.4973313 34.024,12.0866687 34.024,11.676 Z M39.26,6.44 L41.79,6.44 L41.79,8.2 L41.834,8.2 C42.1273348,7.58399692 42.5379974,7.08533524 43.066,6.704 C43.5940026,6.32266476 44.2099965,6.132 44.914,6.132 C45.0166672,6.132 45.1266661,6.13566663 45.244,6.143 C45.3613339,6.15033337 45.4639996,6.16866652 45.552,6.198 L45.552,8.618 C45.3759991,8.57399978 45.2256673,8.54466674 45.101,8.53 C44.9763327,8.51533326 44.8553339,8.508 44.738,8.508 C44.1366637,8.508 43.6526685,8.6179989 43.286,8.838 C42.9193315,9.0580011 42.6333344,9.32199846 42.428,9.63 C42.2226656,9.93800154 42.0833337,10.2533317 42.01,10.576 C41.9366663,10.8986683 41.9,11.1553324 41.9,11.346 L41.9,17 L39.26,17 L39.26,6.44 Z M47.312,6.44 L49.952,6.44 L49.952,17 L47.312,17 L47.312,6.44 Z M46.938,2.854 C46.938,2.42866454 47.0956651,2.05833491 47.411,1.743 C47.7263349,1.42766509 48.1259976,1.27 48.61,1.27 C49.0940024,1.27 49.5009984,1.42033183 49.831,1.721 C50.1610017,2.02166817 50.326,2.39933106 50.326,2.854 C50.326,3.30866894 50.1610017,3.68633183 49.831,3.987 C49.5009984,4.28766817 49.0940024,4.438 48.61,4.438 C48.1259976,4.438 47.7263349,4.28033491 47.411,3.965 C47.0956651,3.64966509 46.938,3.27933546 46.938,2.854 Z M60.38,9.366 C60.1746656,9.0726652 59.8666687,8.82700099 59.456,8.629 C59.0453313,8.43099901 58.6273355,8.332 58.202,8.332 C57.7179976,8.332 57.2926685,8.43099901 56.926,8.629 C56.5593315,8.82700099 56.2550012,9.08733172 56.013,9.41 C55.7709988,9.73266828 55.5913339,10.0956646 55.474,10.499 C55.3566661,10.9023353 55.298,11.3093313 55.298,11.72 C55.298,12.1306687 55.3603327,12.5376646 55.485,12.941 C55.6096673,13.3443353 55.7966654,13.7073317 56.046,14.03 C56.2953346,14.3526683 56.6069981,14.612999 56.981,14.811 C57.3550019,15.009001 57.7913308,15.108 58.29,15.108 C58.7006687,15.108 59.1113313,15.0273341 59.522,14.866 C59.9326687,14.7046659 60.2626654,14.4700015 60.512,14.162 L62.162,15.834 C61.7219978,16.3033357 61.1610034,16.666332 60.479,16.923 C59.7969966,17.1796679 59.060004,17.308 58.268,17.308 C57.4906628,17.308 56.7536702,17.1833346 56.057,16.934 C55.3603299,16.6846654 54.7516693,16.3180024 54.231,15.834 C53.7103307,15.3499976 53.2996682,14.7633368 52.999,14.074 C52.6983318,13.3846632 52.548,12.6000044 52.548,11.72 C52.548,10.8693291 52.6983318,10.0993368 52.999,9.41 C53.2996682,8.72066322 53.7066641,8.13400242 54.22,7.65 C54.7333359,7.16599758 55.3309966,6.79200132 56.013,6.528 C56.6950034,6.26399868 57.4246628,6.132 58.202,6.132 C58.9793372,6.132 59.7309964,6.2786652 60.457,6.572 C61.1830036,6.8653348 61.7586645,7.2686641 62.184,7.782 L60.38,9.366 Z" id="Fabric"></path>
            </g>
        </g>
    </g>
</svg>
