<svg width="24px" height="24px" viewBox="0 0 24 24" version="1.1" xmlns="http://www.w3.org/2000/svg" xmlns:xlink="http://www.w3.org/1999/xlink">
    <!-- Generator: Sketch 43 (38999) - http://www.bohemiancoding.com/sketch -->
    <desc>Created with Sketch.</desc>
    <defs></defs>
    <g id="Symbols" stroke="none" stroke-width="1" fill="none" fill-rule="evenodd">
        <g id="components/elements/application-header/brand/Grey-Matter" transform="translate(-54.000000, -10.000000)" fill="#30B44A">
            <g id="brand" transform="translate(13.000000, 0.000000)">
                <g id="GM-Data" transform="translate(41.000000, 5.000000)">
                    <path d="M11.9870769,5.00000761 C5.35938883,5.00739222 -0.00737699898,10.385235 7.61171997e-06,17.0129231 C0.00739222242,23.6406112 5.38523497,29.007377 12.0129231,28.9999924 C18.6406112,28.9926078 24.007377,23.614765 23.9999924,16.9870769 C23.9926078,10.3593888 18.614765,4.992623 11.9870769,5.00000761 L11.9870769,5.00000761 Z M10,20.913457 C9.53440108,21.1531146 9.02909993,21.339515 8.48048725,21.468854 C7.93187458,21.6000951 7.32912249,21.6666667 6.66681705,21.6666667 C5.97383262,21.6666667 5.34040153,21.5506419 4.76832845,21.3223966 C4.19445071,21.0922492 3.70178209,20.7708036 3.29573652,20.3561579 C2.88608166,19.9415121 2.56846379,19.4469805 2.34107828,18.874465 C2.11369276,18.3019496 2,17.6647646 2,16.9667142 C2,16.2572515 2.11549741,15.6162625 2.34829686,15.043747 C2.58109632,14.4693295 2.90412813,13.9843081 3.31739229,13.5867808 C3.73065644,13.1873514 4.21971577,12.8792202 4.78276562,12.660485 C5.34581547,12.4417499 5.9539815,12.3333333 6.60545906,12.3333333 C7.32912249,12.3333333 7.96796752,12.4341417 8.52740808,12.6357584 C9.08504399,12.8392772 9.56147079,13.1302901 9.95307918,13.512601 L8.63749154,15.0342368 C8.41912926,14.7508321 8.1285811,14.5263909 7.76223776,14.362815 C7.39408978,14.1992392 7.01511392,14.1174513 6.62170088,14.1174513 C6.21926461,14.1174513 5.86013986,14.189729 5.54613129,14.3304803 C5.23031807,14.4731336 4.96503497,14.6690442 4.74667268,14.9201141 C4.53011505,15.171184 4.36589217,15.4717071 4.25219941,15.8197813 C4.13850665,16.1697575 4.0825626,16.5520685 4.0825626,16.9667142 C4.0825626,17.3927722 4.1439206,17.7826914 4.26844124,18.1383738 C4.39296188,18.4921541 4.57162193,18.7983833 4.80442139,19.0551593 C5.03722084,19.3100333 5.31874577,19.509748 5.65080081,19.6524013 C5.98285585,19.7931526 6.34919919,19.8654303 6.75344011,19.8654303 C7.27137379,19.8654303 7.73155876,19.7836424 8.13579968,19.6200666 L8.13579968,17.8017118 L6.42679901,17.8017118 L6.42679901,16.2629577 L10,16.2629577 L10,20.913457 Z M18.8595084,21.2762547 L18.8595084,15.1194844 L18.8284764,15.1194844 L16.6598866,21.2762547 L15.3236847,21.2762547 L13.1550949,15.1194844 L13.1240628,15.1194844 L13.1240628,21.2762547 L11.3333333,21.2762547 L11.3333333,12.609588 L14.0659756,12.609588 L16.046548,18.3502097 L16.0940087,18.3502097 L18.025295,12.609588 L20.6666667,12.609588 L20.6666667,21.2762547 L18.8595084,21.2762547 Z" id="GM-Prefix"></path>
                </g>
            </g>
        </g>
    </g>
</svg>
